<svg width="43" height="43" viewBox="0 0 43 43" fill="none" xmlns="http://www.w3.org/2000/svg">
<g clip-path="url(#clip0_896_1952)">
<path d="M42.4387 7.45996H0V35.7527H42.4387V7.45996Z" fill="#F0F0F0"/>
<path d="M42.4387 10.9961H0V14.5323H42.4387V10.9961Z" fill="#D80027"/>
<path d="M42.4387 18.0698H0V21.6061H42.4387V18.0698Z" fill="#D80027"/>
<path d="M42.4387 25.1416H0V28.6779H42.4387V25.1416Z" fill="#D80027"/>
<path d="M42.4387 32.2153H0V35.7516H42.4387V32.2153Z" fill="#D80027"/>
<path d="M21.2194 7.45996H0V22.6945H21.2194V7.45996Z" fill="#2E52B2"/>
<path d="M8.27429 13.7012L7.93254 14.7525H6.82715L7.72159 15.402L7.37985 16.4532L8.27429 15.8038L9.16816 16.4532L8.82649 15.402L9.72094 14.7525H8.61546L8.27429 13.7012Z" fill="#F0F0F0"/>
<path d="M8.61546 18.5464L8.27429 17.4951L7.93254 18.5464H6.82715L7.72159 19.1959L7.37985 20.2472L8.27429 19.5977L9.16816 20.2472L8.82649 19.1959L9.72094 18.5464H8.61546Z" fill="#F0F0F0"/>
<path d="M3.94367 18.5464L3.60242 17.4951L3.26067 18.5464H2.15527L3.04972 19.1959L2.70797 20.2472L3.60242 19.5977L4.49637 20.2472L4.1547 19.1959L5.04898 18.5464H3.94367Z" fill="#F0F0F0"/>
<path d="M3.60242 13.7012L3.26067 14.7525H2.15527L3.04972 15.402L2.70797 16.4532L3.60242 15.8038L4.49637 16.4532L4.1547 15.402L5.04898 14.7525H3.94367L3.60242 13.7012Z" fill="#F0F0F0"/>
<path d="M8.27429 9.90723L7.93254 10.9587H6.82715L7.72159 11.6082L7.37985 12.6594L8.27429 12.0099L9.16816 12.6594L8.82649 11.6082L9.72094 10.9587H8.61546L8.27429 9.90723Z" fill="#F0F0F0"/>
<path d="M3.60242 9.90723L3.26067 10.9587H2.15527L3.04972 11.6082L2.70797 12.6594L3.60242 12.0099L4.49637 12.6594L4.1547 11.6082L5.04898 10.9587H3.94367L3.60242 9.90723Z" fill="#F0F0F0"/>
<path d="M12.9461 13.7012L12.6044 14.7525H11.499L12.3934 15.402L12.0518 16.4532L12.9461 15.8038L13.8401 16.4532L13.4984 15.402L14.3928 14.7525H13.2874L12.9461 13.7012Z" fill="#F0F0F0"/>
<path d="M13.2874 18.5464L12.9461 17.4951L12.6044 18.5464H11.499L12.3934 19.1959L12.0518 20.2472L12.9461 19.5977L13.8401 20.2472L13.4984 19.1959L14.3928 18.5464H13.2874Z" fill="#F0F0F0"/>
<path d="M17.9592 18.5464L17.618 17.4951L17.2762 18.5464H16.1709L17.0652 19.1959L16.7235 20.2472L17.618 19.5977L18.5119 20.2472L18.1702 19.1959L19.0646 18.5464H17.9592Z" fill="#F0F0F0"/>
<path d="M17.618 13.7012L17.2762 14.7525H16.1709L17.0652 15.402L16.7235 16.4532L17.618 15.8038L18.5119 16.4532L18.1702 15.402L19.0646 14.7525H17.9592L17.618 13.7012Z" fill="#F0F0F0"/>
<path d="M12.9461 9.90723L12.6044 10.9587H11.499L12.3934 11.6082L12.0518 12.6594L12.9461 12.0099L13.8401 12.6594L13.4984 11.6082L14.3928 10.9587H13.2874L12.9461 9.90723Z" fill="#F0F0F0"/>
<path d="M17.618 9.90723L17.2762 10.9587H16.1709L17.0652 11.6082L16.7235 12.6594L17.618 12.0099L18.5119 12.6594L18.1702 11.6082L19.0646 10.9587H17.9592L17.618 9.90723Z" fill="#F0F0F0"/>
</g>
<defs>
<clipPath id="clip0_896_1952">
<rect width="42.4387" height="42.4387" fill="white" transform="translate(0 0.387207)"/>
</clipPath>
</defs>
</svg>
