<svg width="129" height="44" viewBox="0 0 129 44" fill="none" xmlns="http://www.w3.org/2000/svg">
<path d="M5.74512 32.5472V30.7045L0.357422 34.9232L5.72148 39.2498C5.74061 38.6693 5.75975 38.0894 5.77888 37.51C6.638 37.5286 7.88872 37.5505 9.40274 37.5489C10.2146 37.5489 11.0299 37.5387 11.3776 37.532C14.2841 37.4746 18.3434 37.3919 21.3174 34.8995C21.9068 34.408 22.4284 33.8406 22.8686 33.2121C24.8451 30.3231 25.3532 25.5071 22.6509 22.3077C20.7436 20.0481 18.0548 19.5638 17.1028 19.439L10.9792 23.6576C11.4673 23.6123 11.9575 23.5937 12.4477 23.6019C14.2098 23.6289 16.8091 23.6711 18.2945 25.4143C18.8416 26.0355 19.1758 26.8154 19.2481 27.6401C19.3494 29.1588 18.3924 30.3012 18.1932 30.5357C16.4429 32.5961 13.2663 32.613 8.74109 32.6366C7.45662 32.6434 6.41014 32.5911 5.74512 32.5472Z" fill="#5CAD64"/>
<path d="M0.423828 32.5058V15.162C0.431736 13.9661 0.692899 12.7854 1.19012 11.6976C2.50329 8.85761 5.06211 7.6477 6.09678 7.16171C7.52956 6.48893 9.08388 6.1135 10.6659 6.05811C12.7964 6.07151 14.8639 6.78282 16.5515 8.08307C18.1015 9.26529 19.2329 10.912 19.7804 12.7827C20.1897 14.2314 20.2176 15.7614 19.8614 17.2241C19.6011 18.2353 19.1546 19.1893 18.5449 20.0371C15.9253 23.6432 10.7418 24.2372 8.81594 23.3006C8.24955 23.0292 7.76592 22.6115 7.41501 22.0907C7.10857 21.5614 6.97359 20.9502 7.02859 20.341C7.0836 19.7319 7.32589 19.1547 7.7222 18.6888C8.65728 17.6274 10.0228 17.7252 10.1747 17.7387L10.2051 19.3317L15.9084 15.0101L10.119 10.5687L10.1494 12.0402C9.81179 12.0807 7.25635 12.43 6.13222 14.5545C5.8392 15.1141 5.67159 15.7308 5.64105 16.3618L5.61067 28.1335L0.423828 32.5058Z" fill="#3D5A80"/>
<path d="M40.1741 34.509C38.1802 34.509 36.4155 34.085 34.88 33.237C33.3674 32.3891 32.1756 31.2202 31.3047 29.7305C30.4567 28.2179 30.0328 26.4991 30.0328 24.5739V9.86035H35.4644V24.8833C35.4644 25.8459 35.6707 26.6824 36.0832 27.3929C36.4957 28.1033 37.0572 28.6534 37.7677 29.043C38.5011 29.4097 39.3032 29.593 40.1741 29.593C41.0909 29.593 41.893 29.4097 42.5805 29.043C43.2681 28.6534 43.8067 28.1148 44.1963 27.4272C44.6088 26.7168 44.8151 25.8803 44.8151 24.9177V9.86035H50.2467V24.6083C50.2467 26.5334 49.8227 28.2408 48.9748 29.7305C48.1268 31.2202 46.9465 32.3891 45.4339 33.237C43.9213 34.085 42.168 34.509 40.1741 34.509ZM58.193 34.1309V29.3868H64.2091C65.6759 29.3868 66.9593 29.1003 68.0594 28.5273C69.1594 27.9315 70.0074 27.072 70.6033 25.949C71.1992 24.826 71.4971 23.4968 71.4971 21.9612C71.4971 20.4257 71.1877 19.1079 70.5689 18.0078C69.973 16.9077 69.1251 16.0598 68.025 15.4639C66.9478 14.868 65.6759 14.5701 64.2091 14.5701H58.0211V9.86035H64.2778C66.1113 9.86035 67.7958 10.1583 69.3313 10.7542C70.8898 11.3271 72.242 12.1636 73.3879 13.2637C74.5567 14.3409 75.4505 15.6243 76.0693 17.114C76.711 18.5808 77.0319 20.208 77.0319 21.9956C77.0319 23.7603 76.711 25.3875 76.0693 26.8772C75.4505 28.3669 74.5682 29.6503 73.4223 30.7275C72.2763 31.8046 70.9242 32.6412 69.3657 33.237C67.8302 33.8329 66.1571 34.1309 64.3466 34.1309H58.193ZM54.549 34.1309V9.86035H59.9463V34.1309H54.549ZM84.1104 34.1309V29.3868H90.1265C91.5933 29.3868 92.8767 29.1003 93.9768 28.5273C95.0768 27.9315 95.9248 27.072 96.5207 25.949C97.1166 24.826 97.4145 23.4968 97.4145 21.9612C97.4145 20.4257 97.1051 19.1079 96.4863 18.0078C95.8904 16.9077 95.0425 16.0598 93.9424 15.4639C92.8652 14.868 91.5933 14.5701 90.1265 14.5701H83.9385V9.86035H90.1952C92.0287 9.86035 93.7132 10.1583 95.2487 10.7542C96.8072 11.3271 98.1594 12.1636 99.3053 13.2637C100.474 14.3409 101.368 15.6243 101.987 17.114C102.628 18.5808 102.949 20.208 102.949 21.9956C102.949 23.7603 102.628 25.3875 101.987 26.8772C101.368 28.3669 100.486 29.6503 99.3397 30.7275C98.1937 31.8046 96.8416 32.6412 95.2831 33.237C93.7476 33.8329 92.0745 34.1309 90.264 34.1309H84.1104ZM80.4664 34.1309V9.86035H85.8637V34.1309H80.4664ZM113.844 25.0896L104.493 9.86035H110.75L117.935 22.1675H113.912L121.097 9.86035H127.217L117.797 25.0896H113.844ZM113.191 34.1309V22.6144H118.588V34.1309H113.191Z" fill="#5CAD64"/>
</svg>
