<svg width="23" height="24" viewBox="0 0 23 24" fill="none" xmlns="http://www.w3.org/2000/svg">
<path fill-rule="evenodd" clip-rule="evenodd" d="M22.8853 12.0044C22.8853 18.2355 17.8339 23.2868 11.6028 23.2868C5.37165 23.2868 0.320312 18.2355 0.320312 12.0044C0.320312 5.77326 5.37165 0.721924 11.6028 0.721924C17.8339 0.721924 22.8853 5.77326 22.8853 12.0044ZM16.15 8.58544C16.4804 8.91589 16.4804 9.45169 16.15 9.78216L10.5087 15.4234C10.1783 15.7539 9.64257 15.7539 9.31207 15.4234L7.05558 13.1669C6.72513 12.8364 6.72513 12.3006 7.05558 11.9702C7.38603 11.6397 7.92181 11.6397 8.25226 11.9702L9.91042 13.6284L12.4318 11.1068L14.9533 8.58544C15.2838 8.25497 15.8195 8.25497 16.15 8.58544Z" fill="#41CDFB"/>
</svg>
