<svg width="23" height="16" viewBox="0 0 23 16" fill="none" xmlns="http://www.w3.org/2000/svg">
<path d="M1.69336 3.26376H9.61336M9.61336 3.26376C9.61336 4.45669 10.5805 5.42375 11.7734 5.42375C12.9663 5.42375 13.9334 4.45669 13.9334 3.26376M9.61336 3.26376C9.61336 2.07083 10.5805 1.10376 11.7734 1.10376C12.9663 1.10376 13.9334 2.07083 13.9334 3.26376M13.9334 3.26376H21.8534M13.9136 3.55625C15.3398 3.95759 16.6249 4.75038 17.6236 5.84481C18.6222 6.93921 19.2943 8.29146 19.5638 9.74826M3.98296 9.74826C4.25249 8.29146 4.92464 6.9393 5.92326 5.8449C6.92188 4.7505 8.20706 3.95769 9.63316 3.55625M6.01336 11.9038C6.01336 13.0966 5.04629 14.0638 3.85336 14.0638C2.66042 14.0638 1.69336 13.0966 1.69336 11.9038C1.69336 10.7109 2.66042 9.74375 3.85336 9.74375C5.04629 9.74375 6.01336 10.7109 6.01336 11.9038ZM21.8534 11.9038C21.8534 13.0966 20.8863 14.0638 19.6934 14.0638C18.5005 14.0638 17.5334 13.0966 17.5334 11.9038C17.5334 10.7109 18.5005 9.74375 19.6934 9.74375C20.8863 9.74375 21.8534 10.7109 21.8534 11.9038Z" stroke="black" stroke-width="1.92" stroke-linecap="round" stroke-linejoin="round"/>
</svg>
