<svg width="25" height="25" viewBox="0 0 25 25" fill="none" xmlns="http://www.w3.org/2000/svg">
<path d="M2.69336 8.26376H10.6134M10.6134 8.26376C10.6134 9.45669 11.5805 10.4237 12.7734 10.4237C13.9663 10.4237 14.9334 9.45669 14.9334 8.26376M10.6134 8.26376C10.6134 7.07083 11.5805 6.10376 12.7734 6.10376C13.9663 6.10376 14.9334 7.07083 14.9334 8.26376M14.9334 8.26376H22.8534M14.9136 8.55625C16.3398 8.95759 17.6249 9.75038 18.6236 10.8448C19.6222 11.9392 20.2943 13.2915 20.5638 14.7483M4.98296 14.7483C5.25249 13.2915 5.92464 11.9393 6.92326 10.8449C7.92188 9.7505 9.20706 8.95769 10.6332 8.55625M7.01336 16.9038C7.01336 18.0966 6.04629 19.0638 4.85336 19.0638C3.66042 19.0638 2.69336 18.0966 2.69336 16.9038C2.69336 15.7109 3.66042 14.7437 4.85336 14.7437C6.04629 14.7437 7.01336 15.7109 7.01336 16.9038ZM22.8534 16.9038C22.8534 18.0966 21.8863 19.0638 20.6934 19.0638C19.5005 19.0638 18.5334 18.0966 18.5334 16.9038C18.5334 15.7109 19.5005 14.7437 20.6934 14.7437C21.8863 14.7437 22.8534 15.7109 22.8534 16.9038Z" stroke="black" stroke-width="1.92" stroke-linecap="round" stroke-linejoin="round"/>
</svg>
