<svg width="43" height="43" viewBox="0 0 43 43" fill="none" xmlns="http://www.w3.org/2000/svg">
<g clip-path="url(#clip0_896_1914)">
<path d="M0 26.0107V31.6236C0 33.9509 1.84814 35.5937 4.10697 35.5937H38.3317C40.5906 35.5937 42.4387 33.9509 42.4387 31.6236V26.0107H0Z" fill="#359846"/>
<path d="M38.3317 6.84473H4.10697C1.84814 6.84473 0 8.48752 0 10.8148V16.4277H42.4387V10.8148C42.4387 8.48752 40.5906 6.84473 38.3317 6.84473Z" fill="#EA8634"/>
<path d="M42.4387 16.4277H0V26.0107H42.4387V16.4277Z" fill="#FCFBF0"/>
<path d="M38.1945 35.5937C40.4533 35.5937 42.4383 33.9509 42.4383 31.6236V26.0107H26.9688L38.1945 35.5937Z" fill="#21872F"/>
<path d="M38.3312 6.84473H4.10645L15.4691 16.4277H42.4382V10.8148C42.4382 8.48752 40.59 6.84473 38.3312 6.84473Z" fill="#E27423"/>
<path d="M27.0368 26.0107H42.438V16.4277H15.4004L27.0368 26.0107Z" fill="#F7F4E2"/>
<path d="M38.3312 6.84473H4.10645L35.7986 16.4277H42.4382V10.8148C42.4382 8.48752 40.59 6.84473 38.3312 6.84473Z" fill="#D86619"/>
<path d="M42.4389 18.3443V16.4277H35.457L42.4389 18.3443Z" fill="#F2E9C2"/>
<path d="M42.4387 31.5558C42.4387 34.0199 40.5906 35.5943 38.3317 35.5943H4.10697C1.84814 35.5943 0 33.8146 0 31.4873" fill="#167A20"/>
<path d="M21.2195 16.9072C18.8238 16.9072 16.9072 18.8238 16.9072 21.2195C16.9072 23.6153 18.8238 25.5319 21.2195 25.5319C23.6153 25.5319 25.5319 23.6153 25.5319 21.2195C25.5319 18.8238 23.6153 16.9072 21.2195 16.9072ZM24.7789 21.6987C24.7789 21.7671 24.8474 21.904 24.9158 21.904C24.8474 22.1094 24.8474 22.3147 24.7789 22.5201C24.7105 22.4516 24.5736 22.5201 24.5051 22.5885C24.4367 22.657 24.5051 22.7939 24.5736 22.8623C24.5051 23.0677 24.3682 23.2046 24.2998 23.4099C24.2313 23.3415 24.0944 23.3415 24.026 23.4784C23.9575 23.5468 23.9575 23.6837 24.026 23.7522C23.9575 23.8206 23.8891 23.8891 23.8206 23.9575L22.3147 22.2463L21.6987 21.7671L21.7671 21.6987L22.3832 22.1778L24.3682 23.2046L22.5885 21.8356L21.904 21.5618C21.904 21.4933 21.904 21.4933 21.9725 21.4249L22.657 21.6987L24.8474 22.1778L22.7254 21.4933L21.9725 21.3564C21.9725 21.288 21.9725 21.288 21.9725 21.2195L22.7254 21.288L24.9843 21.1511L22.7254 21.0142L21.9725 21.0826C21.9725 21.0142 21.9725 21.0142 21.9725 20.9457L22.7254 20.8088L24.8474 20.1244L22.657 20.6035L21.9725 20.8773C21.9725 20.8088 21.9725 20.8088 21.904 20.7404L22.5885 20.4666L24.5051 19.2345L22.5201 20.2613L21.904 20.7404L21.8356 20.672L22.4516 20.1928L23.9575 18.4816C24.026 18.55 24.0944 18.6185 24.1629 18.6869C24.0944 18.7554 24.0944 18.8923 24.1629 18.9607C24.2313 19.0292 24.3682 19.0292 24.4367 19.0292C24.5736 19.1661 24.642 19.3714 24.7105 19.5768C24.642 19.6452 24.5736 19.7137 24.642 19.8506C24.7105 19.919 24.7789 19.9875 24.9158 19.919C24.9843 20.1244 25.0527 20.3297 25.0527 20.5351C24.9843 20.5351 24.9158 20.6719 24.9158 20.7404C24.9158 20.8088 25.0527 20.9457 25.1212 20.8773C25.1212 20.9457 25.1212 21.0826 25.1212 21.1511C25.1212 21.2195 25.1212 21.3564 25.1212 21.4249C24.8474 21.4933 24.7789 21.5618 24.7789 21.6987ZM18.8238 18.3447C18.8923 18.4131 19.0292 18.4131 19.0976 18.3447C19.1661 18.2762 19.1661 18.1393 19.1661 18.0709C19.303 17.934 19.5083 17.8655 19.7137 17.7971C19.7821 17.8655 19.8506 17.934 19.9875 17.8655C20.0559 17.7971 20.1244 17.7286 20.0559 17.5917C20.2613 17.5233 20.4666 17.4548 20.672 17.4548C20.672 17.5233 20.8088 17.5917 20.8773 17.5917C20.9457 17.5917 21.0826 17.4548 21.0142 17.3864C21.0826 17.3864 21.2195 17.3864 21.288 17.3864C21.3564 17.3864 21.4933 17.3864 21.5618 17.3864C21.5618 17.4548 21.6302 17.5917 21.6987 17.5917C21.7671 17.5917 21.904 17.5233 21.904 17.4548C22.1094 17.5233 22.3147 17.5233 22.5201 17.5917C22.4516 17.6602 22.5201 17.7971 22.5885 17.8655C22.657 17.934 22.7939 17.8655 22.8623 17.7971C23.0677 17.8655 23.2046 18.0024 23.4099 18.0709C23.3415 18.1393 23.3415 18.2762 23.4784 18.3447C23.5468 18.4131 23.6837 18.4131 23.7522 18.3447C23.8206 18.4131 23.8891 18.4816 23.9575 18.55L22.2463 20.0559L21.7671 20.672L21.6987 20.6035L22.1778 19.9875L23.2046 18.0024L21.8356 19.8506L21.5618 20.5351C21.4933 20.5351 21.4933 20.5351 21.4249 20.4666L21.6987 19.7821L22.1778 17.5917L21.4933 19.7137L21.3564 20.4666C21.288 20.4666 21.288 20.4666 21.2195 20.4666L21.288 19.7137L21.2195 17.4548L21.0826 19.7137L21.1511 20.4666C21.0826 20.4666 21.0826 20.4666 21.0142 20.4666L20.8773 19.7137L20.1928 17.5917L20.672 19.7821L20.9457 20.4666C20.8773 20.4666 20.8773 20.4666 20.8088 20.5351L20.5351 19.8506L19.303 17.934L20.3297 19.919L20.8088 20.5351L20.7404 20.6035L20.2613 19.9875L18.55 18.4816C18.6185 18.4816 18.6869 18.4131 18.8238 18.3447ZM18.55 23.8891C18.4816 23.8206 18.4131 23.7522 18.3447 23.6837C18.4131 23.6153 18.4131 23.4784 18.3447 23.4099C18.2762 23.3415 18.1393 23.3415 18.0709 23.3415C17.934 23.2046 17.8655 22.9992 17.7971 22.7939C17.8655 22.7254 17.934 22.657 17.8655 22.5201C17.7971 22.4516 17.7286 22.3832 17.5917 22.4516C17.5233 22.2463 17.4548 22.0409 17.4548 21.8356C17.5233 21.8356 17.5917 21.6987 17.5917 21.6302C17.5917 21.5618 17.4548 21.4249 17.3864 21.4933C17.3864 21.4249 17.3864 21.288 17.3864 21.2195C17.3864 21.1511 17.3864 21.0142 17.3864 20.9457C17.4548 20.9457 17.5917 20.8773 17.5917 20.8088C17.5917 20.7404 17.5233 20.6035 17.4548 20.6035C17.5233 20.3982 17.5233 20.1928 17.5917 19.9875C17.6602 20.0559 17.7971 19.9875 17.8655 19.919C17.934 19.8506 17.8655 19.7137 17.7971 19.6452C17.8655 19.4399 18.0024 19.303 18.0709 19.0976C18.1393 19.1661 18.2762 19.1661 18.3447 19.0292C18.4131 18.8923 18.4131 18.8238 18.3447 18.7554C18.4131 18.6869 18.4816 18.6185 18.55 18.55L20.0559 20.2613L20.672 20.7404L20.6035 20.8088L19.9875 20.3297L18.0024 19.303L19.919 20.5351L20.6035 20.8088C20.6035 20.8773 20.6035 20.8773 20.5351 20.9457L19.8506 20.672L17.6602 20.1928L19.7821 20.8773L20.5351 21.0142C20.5351 21.0826 20.5351 21.0826 20.5351 21.1511L19.7821 21.0826L17.4548 21.2195L19.7137 21.3564L20.4666 21.288C20.4666 21.3564 20.4666 21.3564 20.4666 21.4249L19.7137 21.5618L17.5917 22.2463L19.7821 21.7671L20.4666 21.4933C20.4666 21.5618 20.4666 21.5618 20.5351 21.6302L19.8506 21.904L17.934 23.1361L19.919 22.1094L20.5351 21.6302L20.6035 21.6987L19.9875 22.1778L18.55 23.8891ZM20.9457 24.9843C20.9457 24.9158 20.8773 24.7789 20.8088 24.7789C20.7404 24.7789 20.6035 24.8474 20.6035 24.9158C20.3982 24.8474 20.1928 24.8474 19.9875 24.7789C20.0559 24.7105 19.9875 24.5736 19.919 24.5051C19.8506 24.4367 19.7137 24.5051 19.6452 24.5736C19.4399 24.5051 19.303 24.3682 19.0976 24.2998C19.1661 24.2313 19.1661 24.0944 19.0292 24.026C18.9607 23.9575 18.8238 23.9575 18.7554 24.026C18.6869 23.9575 18.6185 23.8891 18.55 23.8206L20.2613 22.3147L20.7404 21.6987L20.8088 21.7671L20.3297 22.3832L19.303 24.3682L20.5351 22.4516L20.8088 21.7671C20.8773 21.7671 20.8773 21.7671 20.9457 21.8356L20.672 22.5201L20.1928 24.7105L20.8773 22.5885L21.0142 21.8356C21.0826 21.8356 21.0826 21.8356 21.1511 21.8356L21.0826 22.5885L21.2195 24.8474L21.3564 22.5885L21.288 21.8356C21.3564 21.8356 21.3564 21.8356 21.4249 21.8356L21.5618 22.5885L22.2463 24.7105L21.7671 22.5201L21.4933 21.8356C21.5618 21.8356 21.5618 21.8356 21.6302 21.7671L21.904 22.4516L23.1361 24.3682L22.1094 22.3832L21.6302 21.7671L21.6987 21.6987L22.1778 22.3147L23.8891 23.8206C23.8206 23.8891 23.7522 23.9575 23.6837 24.026C23.6153 23.9575 23.4784 23.9575 23.4099 24.026C23.3415 24.0944 23.3415 24.2313 23.3415 24.2998C23.2046 24.4367 22.9992 24.5051 22.7939 24.5736C22.7254 24.5051 22.657 24.4367 22.5201 24.5051C22.3832 24.5736 22.3832 24.642 22.4516 24.7789C22.2463 24.8474 22.0409 24.9158 21.8356 24.9158C21.8356 24.8474 21.6987 24.7789 21.6302 24.7789C21.5618 24.7789 21.4249 24.9158 21.4933 24.9843C21.4249 24.9843 21.288 24.9843 21.2195 24.9843C21.1511 24.9843 21.0142 24.9843 20.9457 24.9843Z" fill="#7D7DBC"/>
<path d="M22.1787 22.0405L22.3837 22.2455V22.1772L22.1787 22.0405Z" fill="#6060B2"/>
<path d="M21.2201 16.9072C19.9196 16.9072 18.756 17.5233 17.9346 18.4131L18.3453 18.7554C18.4137 18.6869 18.4822 18.6185 18.5506 18.55C18.6191 18.4816 18.6875 18.4131 18.756 18.3447C18.8244 18.4131 18.9613 18.4131 19.0298 18.3447C19.0982 18.2762 19.0982 18.1393 19.0982 18.0709C19.1667 18.0024 19.3036 18.0024 19.372 17.934L20.3988 19.919L20.8779 20.5351L20.8094 20.6035L20.3303 19.9875L18.6191 18.4816L20.0565 20.1244L20.2619 20.2613L20.6726 20.6035L21.8362 21.5618L21.9046 21.4933L22.5207 21.9725L24.5057 22.9992C24.4373 23.0677 24.4373 23.2046 24.3688 23.273C24.3004 23.2046 24.1635 23.2046 24.095 23.3415C24.0266 23.4099 24.0266 23.5468 24.095 23.6153L24.5057 23.9575C25.1218 23.2046 25.5325 22.2463 25.5325 21.1511C25.5325 18.8238 23.6159 16.9072 21.2201 16.9072ZM20.8779 20.5351L20.6041 19.8506L19.372 18.0024C19.4405 17.934 19.5089 17.8655 19.6458 17.8655C19.7143 17.934 19.7827 18.0024 19.9196 17.934C19.9881 17.8655 20.0565 17.7971 19.9881 17.6602C20.0565 17.6602 20.1934 17.5917 20.2619 17.5917L20.741 19.7821L21.0148 20.4666C20.9463 20.5351 20.9463 20.5351 20.8779 20.5351ZM21.2886 20.4666L21.357 19.7137L21.2201 17.4548L21.0832 19.7137L21.1517 20.4666C21.0832 20.4666 21.0832 20.4666 21.0148 20.4666L20.8779 19.7137L20.1934 17.5917C20.2619 17.5917 20.3988 17.5233 20.4672 17.5233C20.4672 17.5917 20.6041 17.6602 20.6726 17.6602C20.741 17.6602 20.8779 17.5233 20.8094 17.4548C20.8779 17.4548 21.0148 17.4548 21.0832 17.4548C21.1517 17.4548 21.2886 17.4548 21.357 17.4548C21.357 17.5233 21.4255 17.6602 21.4939 17.6602C21.5624 17.6602 21.6993 17.5917 21.6993 17.5233C21.7677 17.5233 21.9046 17.5917 21.9731 17.5917L21.2886 19.7137L21.1517 20.4666C21.357 20.4666 21.2886 20.4666 21.2886 20.4666ZM21.4255 20.5351L21.6993 19.8506L22.1784 17.6602C22.2469 17.6602 22.3838 17.7286 22.4522 17.7286C22.3838 17.7971 22.4522 17.934 22.5207 18.0024C22.5891 18.0709 22.726 18.0024 22.7945 17.934C22.8629 18.0024 22.9998 18.0024 23.0683 18.0709L21.8362 19.8506L21.5624 20.5351C21.4939 20.5351 21.4939 20.5351 21.4255 20.5351ZM24.5057 22.5885C24.4373 22.657 24.5057 22.7939 24.5742 22.8623C24.5057 22.9308 24.5057 23.0677 24.4373 23.1361L22.5891 21.8356L21.9046 21.5618C21.9046 21.4933 21.9046 21.4933 21.9731 21.4249L22.6576 21.6987L24.848 22.1778C24.848 22.2463 24.7795 22.3832 24.7795 22.4516C24.6426 22.4516 24.5742 22.5201 24.5057 22.5885ZM24.9849 20.9457C24.9849 21.0142 24.9849 21.1511 24.9849 21.2195C24.9849 21.288 24.9849 21.4249 24.9849 21.4933C24.9164 21.4933 24.7795 21.5618 24.7795 21.6302C24.7795 21.6987 24.848 21.8356 24.9164 21.8356C24.9164 21.904 24.848 22.0409 24.848 22.1094L22.726 21.4249L21.9731 21.288C21.9731 21.2195 21.9731 21.2195 21.9731 21.1511L22.726 21.2195L24.9849 21.0826L22.726 20.9457L21.9731 21.0142C21.9731 20.9457 21.9731 20.9457 21.9731 20.8773L22.726 20.7404L24.848 20.0559C24.848 20.1244 24.9164 20.2613 24.9164 20.3297C24.848 20.3297 24.7795 20.4666 24.7795 20.5351C24.7795 20.8773 24.848 20.9457 24.9849 20.9457ZM24.5057 19.8506C24.5742 19.919 24.6426 19.9875 24.7795 19.919C24.7795 19.9875 24.848 20.1244 24.848 20.1928L22.6576 20.672L21.9731 20.9457C21.9731 20.8773 21.9731 20.8773 21.9046 20.8088L22.5891 20.5351L24.4373 19.303C24.5057 19.3714 24.5742 19.4399 24.5742 19.5768C24.5057 19.6452 24.4373 19.7821 24.5057 19.8506ZM24.4373 19.3714L22.4522 20.3982L21.8362 20.8773L21.7677 20.8088L22.3838 20.3297L23.8897 18.6185L22.1784 20.1244L21.6993 20.7404L21.6308 20.672L22.11 20.0559L23.1367 18.0709C23.2052 18.1393 23.3421 18.1393 23.4105 18.2078C23.3421 18.2762 23.3421 18.4131 23.479 18.4816C23.5474 18.55 23.6843 18.55 23.7528 18.4816C23.8212 18.55 23.8897 18.6185 23.9581 18.6869C24.0266 18.7554 24.095 18.8238 24.1635 18.8923C24.095 18.9607 24.095 19.0976 24.1635 19.1661C24.2319 19.2345 24.3688 19.2345 24.4373 19.2345C24.3688 19.1661 24.4373 19.2345 24.4373 19.3714Z" fill="#6060B2"/>
</g>
<defs>
<clipPath id="clip0_896_1914">
<rect width="42.4387" height="42.4387" fill="white"/>
</clipPath>
</defs>
</svg>
