<svg width="322" height="46" viewBox="0 0 322 46" fill="none" xmlns="http://www.w3.org/2000/svg">
<path d="M15.7712 37.728C13.3098 37.728 11.1085 37.3293 9.16718 36.532C7.22585 35.7347 5.57918 34.5733 4.22718 33.048C2.90985 31.5227 1.90451 29.668 1.21118 27.484C0.517846 25.3 0.171179 22.804 0.171179 19.996C0.171179 15.94 0.847179 12.5947 2.19918 9.96C3.55118 7.29067 5.40585 5.29733 7.76318 3.98C10.1552 2.66266 12.8938 2.004 15.9792 2.004C18.3712 2.004 20.5205 2.38533 22.4272 3.148C24.3338 3.91067 25.9632 5.05467 27.3152 6.58C28.6672 8.10533 29.7072 9.99467 30.4352 12.248C31.1632 14.4667 31.5272 17.0147 31.5272 19.892C31.5272 22.7693 31.1632 25.3173 30.4352 27.536C29.7418 29.72 28.7018 31.5747 27.3152 33.1C25.9632 34.5907 24.3165 35.7347 22.3752 36.532C20.4338 37.3293 18.2325 37.728 15.7712 37.728ZM15.9272 32.268C17.8685 32.268 19.4978 31.8 20.8152 30.864C22.1325 29.928 23.1205 28.5587 23.7792 26.756C24.4378 24.9533 24.7672 22.752 24.7672 20.152C24.7672 17.448 24.4205 15.16 23.7272 13.288C23.0338 11.416 22.0112 9.99466 20.6592 9.024C19.3418 8.01866 17.7298 7.516 15.8232 7.516C13.9512 7.516 12.3392 8.00133 10.9872 8.972C9.66985 9.908 8.66451 11.2947 7.97118 13.132C7.27785 14.9693 6.93118 17.2227 6.93118 19.892C6.93118 21.9027 7.12185 23.688 7.50318 25.248C7.91918 26.7733 8.49118 28.056 9.21918 29.096C9.98185 30.136 10.9178 30.9333 12.0272 31.488C13.1712 32.008 14.4712 32.268 15.9272 32.268ZM45.1019 37.676C42.0165 37.676 39.7112 36.6013 38.1859 34.452C36.6605 32.3027 35.8979 29.0093 35.8979 24.572V9.856H42.5019V24.156C42.5019 26.8947 42.8832 28.888 43.6459 30.136C44.4432 31.384 45.6565 32.008 47.2859 32.008C48.2912 32.008 49.1752 31.7653 49.9379 31.28C50.7352 30.7947 51.4112 30.084 51.9659 29.148C52.5552 28.1773 52.9885 27.016 53.2659 25.664C53.5779 24.2773 53.7685 22.7 53.8379 20.932V9.856H60.3899V24.936V37H54.7739L55.0339 27.276H54.3579C53.9765 29.7027 53.3872 31.696 52.5899 33.256C51.8272 34.7813 50.8219 35.908 49.5739 36.636C48.3605 37.3293 46.8699 37.676 45.1019 37.676ZM65.6844 37V23.272V9.856H71.3524L71.0924 20.256H71.8204C72.0977 17.6907 72.5484 15.6107 73.1724 14.016C73.831 12.3867 74.6977 11.1907 75.7724 10.428C76.8817 9.63066 78.199 9.232 79.7244 9.232C80.175 9.232 80.643 9.284 81.1284 9.388C81.6137 9.45733 82.1337 9.596 82.6884 9.804L82.3764 16.876C81.787 16.564 81.1804 16.356 80.5564 16.252C79.967 16.1133 79.4124 16.044 78.8924 16.044C77.575 16.044 76.4484 16.4253 75.5124 17.188C74.5764 17.9507 73.831 19.0427 73.2764 20.464C72.7564 21.8853 72.4097 23.6013 72.2364 25.612V37H65.6844ZM94.6188 37L106.423 2.68H115.627L127.431 37H120.307L111.259 8.036H110.739L101.743 37H94.6188ZM100.807 30.032V25.3H122.127V30.032H100.807ZM130.44 45.112V22.232V9.856H136.16L135.952 17.812H136.628C137.009 15.8707 137.599 14.2587 138.396 12.976C139.193 11.6933 140.199 10.74 141.412 10.116C142.625 9.45733 144.047 9.128 145.676 9.128C147.964 9.128 149.923 9.7 151.552 10.844C153.181 11.9533 154.429 13.5827 155.296 15.732C156.163 17.8467 156.596 20.412 156.596 23.428C156.596 26.4093 156.163 28.9747 155.296 31.124C154.464 33.2387 153.251 34.868 151.656 36.012C150.061 37.1213 148.155 37.676 145.936 37.676C144.203 37.676 142.712 37.3293 141.464 36.636C140.251 35.908 139.245 34.868 138.448 33.516C137.685 32.164 137.113 30.5693 136.732 28.732H135.952C136.16 29.8413 136.333 30.9333 136.472 32.008C136.645 33.0827 136.767 34.1227 136.836 35.128C136.94 36.0987 136.992 37.0347 136.992 37.936V45.112H130.44ZM143.752 32.268C145.069 32.268 146.179 31.904 147.08 31.176C147.981 30.4133 148.657 29.3733 149.108 28.056C149.593 26.704 149.836 25.1787 149.836 23.48C149.836 21.7467 149.593 20.2387 149.108 18.956C148.623 17.6387 147.929 16.616 147.028 15.888C146.127 15.1253 145.017 14.744 143.7 14.744C142.625 14.744 141.672 14.9867 140.84 15.472C140.008 15.9573 139.297 16.5987 138.708 17.396C138.153 18.1933 137.72 19.0947 137.408 20.1C137.131 21.0707 136.992 22.076 136.992 23.116V23.792C136.992 24.52 137.079 25.2827 137.252 26.08C137.46 26.8773 137.737 27.64 138.084 28.368C138.465 29.096 138.916 29.7547 139.436 30.344C139.991 30.9333 140.632 31.4013 141.36 31.748C142.088 32.0947 142.885 32.268 143.752 32.268ZM160.828 45.112V22.232V9.856H166.548L166.34 17.812H167.016C167.397 15.8707 167.986 14.2587 168.784 12.976C169.581 11.6933 170.586 10.74 171.8 10.116C173.013 9.45733 174.434 9.128 176.064 9.128C178.352 9.128 180.31 9.7 181.94 10.844C183.569 11.9533 184.817 13.5827 185.684 15.732C186.55 17.8467 186.984 20.412 186.984 23.428C186.984 26.4093 186.55 28.9747 185.684 31.124C184.852 33.2387 183.638 34.868 182.044 36.012C180.449 37.1213 178.542 37.676 176.324 37.676C174.59 37.676 173.1 37.3293 171.852 36.636C170.638 35.908 169.633 34.868 168.836 33.516C168.073 32.164 167.501 30.5693 167.12 28.732H166.34C166.548 29.8413 166.721 30.9333 166.86 32.008C167.033 33.0827 167.154 34.1227 167.224 35.128C167.328 36.0987 167.38 37.0347 167.38 37.936V45.112H160.828ZM174.14 32.268C175.457 32.268 176.566 31.904 177.468 31.176C178.369 30.4133 179.045 29.3733 179.496 28.056C179.981 26.704 180.224 25.1787 180.224 23.48C180.224 21.7467 179.981 20.2387 179.496 18.956C179.01 17.6387 178.317 16.616 177.416 15.888C176.514 15.1253 175.405 14.744 174.088 14.744C173.013 14.744 172.06 14.9867 171.228 15.472C170.396 15.9573 169.685 16.5987 169.096 17.396C168.541 18.1933 168.108 19.0947 167.796 20.1C167.518 21.0707 167.38 22.076 167.38 23.116V23.792C167.38 24.52 167.466 25.2827 167.64 26.08C167.848 26.8773 168.125 27.64 168.472 28.368C168.853 29.096 169.304 29.7547 169.824 30.344C170.378 30.9333 171.02 31.4013 171.748 31.748C172.476 32.0947 173.273 32.268 174.14 32.268ZM191.215 37V23.272V9.856H196.883L196.623 20.256H197.351C197.628 17.6907 198.079 15.6107 198.703 14.016C199.362 12.3867 200.228 11.1907 201.303 10.428C202.412 9.63066 203.73 9.232 205.255 9.232C205.706 9.232 206.174 9.284 206.659 9.388C207.144 9.45733 207.664 9.596 208.219 9.804L207.907 16.876C207.318 16.564 206.711 16.356 206.087 16.252C205.498 16.1133 204.943 16.044 204.423 16.044C203.106 16.044 201.979 16.4253 201.043 17.188C200.107 17.9507 199.362 19.0427 198.807 20.464C198.287 21.8853 197.94 23.6013 197.767 25.612V37H191.215ZM223.007 37.676C220.407 37.676 218.084 37.1387 216.039 36.064C214.028 34.9893 212.451 33.3947 211.307 31.28C210.163 29.1653 209.591 26.5307 209.591 23.376C209.591 20.152 210.18 17.5 211.359 15.42C212.538 13.3053 214.132 11.728 216.143 10.688C218.154 9.648 220.442 9.128 223.007 9.128C225.607 9.128 227.912 9.66533 229.923 10.74C231.968 11.8147 233.563 13.4093 234.707 15.524C235.851 17.6387 236.423 20.2907 236.423 23.48C236.423 26.704 235.834 29.3733 234.655 31.488C233.511 33.568 231.916 35.128 229.871 36.168C227.826 37.1733 225.538 37.676 223.007 37.676ZM223.215 32.684C224.602 32.684 225.78 32.3373 226.751 31.644C227.756 30.9507 228.519 29.9453 229.039 28.628C229.559 27.276 229.819 25.664 229.819 23.792C229.819 21.816 229.542 20.1347 228.987 18.748C228.432 17.3613 227.635 16.2867 226.595 15.524C225.555 14.7613 224.307 14.38 222.851 14.38C221.464 14.38 220.268 14.7267 219.263 15.42C218.292 16.1133 217.53 17.136 216.975 18.488C216.455 19.8053 216.195 21.4 216.195 23.272C216.195 26.2533 216.819 28.576 218.067 30.24C219.315 31.8693 221.031 32.684 223.215 32.684ZM247.118 37.676C245.662 37.676 244.328 37.416 243.114 36.896C241.936 36.3413 240.982 35.5093 240.254 34.4C239.526 33.2907 239.162 31.8693 239.162 30.136C239.162 28.6107 239.457 27.3453 240.046 26.34C240.636 25.3 241.468 24.468 242.542 23.844C243.617 23.1853 244.882 22.6653 246.338 22.284C247.829 21.9027 249.476 21.5733 251.278 21.296C252.804 21.0533 253.965 20.8453 254.762 20.672C255.594 20.464 256.184 20.204 256.53 19.892C256.877 19.5453 257.05 19.0427 257.05 18.384C257.05 17.2053 256.617 16.252 255.75 15.524C254.918 14.7613 253.722 14.38 252.162 14.38C251.226 14.38 250.308 14.5533 249.406 14.9C248.505 15.212 247.742 15.7667 247.118 16.564C246.494 17.3267 246.113 18.3493 245.974 19.632L240.046 18.384C240.289 16.72 240.757 15.316 241.45 14.172C242.178 12.9933 243.097 12.04 244.206 11.312C245.316 10.5493 246.564 9.99467 247.95 9.648C249.372 9.30133 250.845 9.128 252.37 9.128C254.832 9.128 256.877 9.56133 258.506 10.428C260.17 11.26 261.418 12.5427 262.25 14.276C263.082 16.0093 263.498 18.1933 263.498 20.828V25.872C263.498 27.0853 263.516 28.316 263.55 29.564C263.585 30.812 263.62 32.06 263.654 33.308C263.724 34.556 263.793 35.7867 263.862 37H257.986C257.952 35.8213 257.917 34.6253 257.882 33.412C257.848 32.164 257.813 30.864 257.778 29.512H257.154C256.808 31.0373 256.184 32.424 255.282 33.672C254.381 34.8853 253.237 35.856 251.85 36.584C250.498 37.312 248.921 37.676 247.118 37.676ZM249.614 32.736C250.342 32.736 251.088 32.5973 251.85 32.32C252.648 32.0427 253.393 31.6267 254.086 31.072C254.814 30.4827 255.438 29.7547 255.958 28.888C256.478 27.9867 256.86 26.9293 257.102 25.716V22.7L258.402 22.648C257.917 23.168 257.258 23.5667 256.426 23.844C255.629 24.0867 254.745 24.2947 253.774 24.468C252.838 24.6067 251.885 24.78 250.914 24.988C249.978 25.1613 249.112 25.404 248.314 25.716C247.517 25.9933 246.876 26.4093 246.39 26.964C245.905 27.5187 245.662 28.264 245.662 29.2C245.662 30.3093 246.026 31.176 246.754 31.8C247.482 32.424 248.436 32.736 249.614 32.736ZM280.942 37.676C278.619 37.676 276.608 37.3293 274.91 36.636C273.211 35.9427 271.79 34.9547 270.646 33.672C269.536 32.3893 268.704 30.8987 268.15 29.2C267.63 27.5013 267.37 25.664 267.37 23.688C267.37 21.6427 267.647 19.7533 268.202 18.02C268.756 16.252 269.588 14.7093 270.698 13.392C271.807 12.04 273.194 11 274.858 10.272C276.522 9.50933 278.463 9.128 280.682 9.128C283.108 9.128 285.136 9.56133 286.766 10.428C288.43 11.2947 289.712 12.456 290.614 13.912C291.515 15.3333 292 16.9627 292.07 18.8L286.09 20.1C286.09 18.9213 285.847 17.8987 285.362 17.032C284.911 16.1653 284.27 15.5067 283.438 15.056C282.606 14.6053 281.635 14.38 280.526 14.38C279.52 14.38 278.619 14.5707 277.822 14.952C277.024 15.3333 276.331 15.9227 275.742 16.72C275.187 17.4827 274.754 18.4187 274.442 19.528C274.164 20.6373 274.026 21.9373 274.026 23.428C274.026 25.404 274.286 27.0853 274.806 28.472C275.36 29.824 276.158 30.864 277.198 31.592C278.238 32.2853 279.52 32.632 281.046 32.632C282.432 32.632 283.559 32.3373 284.426 31.748C285.292 31.1587 285.916 30.396 286.298 29.46C286.714 28.524 286.939 27.5187 286.974 26.444L292.954 27.328C292.884 28.784 292.59 30.1533 292.07 31.436C291.584 32.684 290.839 33.7933 289.834 34.764C288.828 35.7 287.58 36.428 286.09 36.948C284.634 37.4333 282.918 37.676 280.942 37.676ZM296.26 37V21.868V0.547998H302.864V8.348C302.864 9.04133 302.83 9.856 302.76 10.792C302.691 11.728 302.587 12.7333 302.448 13.808C302.344 14.848 302.223 15.888 302.084 16.928C301.98 17.968 301.859 18.956 301.72 19.892H302.5C302.916 17.4653 303.506 15.4547 304.268 13.86C305.066 12.2653 306.088 11.0867 307.336 10.324C308.619 9.52667 310.179 9.128 312.016 9.128C315.067 9.128 317.338 10.22 318.828 12.404C320.319 14.5533 321.064 17.7947 321.064 22.128V37H314.46V22.804C314.46 20.0653 314.062 18.0547 313.264 16.772C312.467 15.4893 311.254 14.848 309.624 14.848C308.203 14.848 306.99 15.316 305.984 16.252C305.014 17.1533 304.251 18.4533 303.696 20.152C303.176 21.8507 302.882 23.8787 302.812 26.236V37H296.26Z" fill="url(#paint0_linear_855_722)"/>
<defs>
<linearGradient id="paint0_linear_855_722" x1="160.773" y1="1" x2="160.773" y2="39.4" gradientUnits="userSpaceOnUse">
<stop offset="0.1135" stop-color="#1A2224"/>
<stop offset="1" stop-color="#1A2224" stop-opacity="0.5"/>
</linearGradient>
</defs>
</svg>
