<svg width="38" height="39" viewBox="0 0 38 39" fill="none" xmlns="http://www.w3.org/2000/svg">
<path d="M10.6324 20.386H17.8258V27.5794C17.8258 28.3105 18.4272 28.9237 19.1701 28.9237C19.913 28.9237 20.5145 28.3105 20.5145 27.5794V20.386H27.7078C28.439 20.386 29.0522 19.7846 29.0522 19.0417C29.0522 18.2988 28.439 17.6974 27.7078 17.6974H20.5145V10.504C20.5145 9.77287 19.913 9.15967 19.1701 9.15967C18.4272 9.15967 17.8258 9.77287 17.8258 10.504V17.6974H10.6324C9.90129 17.6974 9.28809 18.2988 9.28809 19.0417C9.28809 19.7846 9.90129 20.386 10.6324 20.386Z" fill="black"/>
</svg>
