<svg width="38" height="39" viewBox="0 0 38 39" fill="none" xmlns="http://www.w3.org/2000/svg">
<path d="M10.0322 26.3946C9.53688 26.8899 9.5133 27.7743 10.044 28.2932C10.5628 28.812 11.4473 28.8002 11.9425 28.305L19.1595 21.0762L26.3882 28.305C26.8953 28.812 27.768 28.812 28.2868 28.2932C28.7939 27.7625 28.8057 26.9017 28.2868 26.3946L21.0699 19.1658L28.2868 11.9489C28.8057 11.4418 28.8057 10.5692 28.2868 10.0503C27.7562 9.54323 26.8953 9.53144 26.3882 10.0385L19.1595 17.2673L11.9425 10.0385C11.4473 9.54323 10.551 9.51965 10.044 10.0503C9.52509 10.5692 9.53688 11.4536 10.0322 11.9489L17.2609 19.1658L10.0322 26.3946Z" fill="black"/>
</svg>
